<?xml version="1.0" encoding="utf-8"?>
<!-- Generator: Adobe Illustrator 16.0.0, SVG Export Plug-In . SVG Version: 6.00 Build 0)  -->
<!DOCTYPE svg PUBLIC "-//W3C//DTD SVG 1.1//EN" "http://www.w3.org/Graphics/SVG/1.1/DTD/svg11.dtd">
<svg version="1.1" xmlns="http://www.w3.org/2000/svg" xmlns:xlink="http://www.w3.org/1999/xlink" x="0px" y="0px" width="100px"
	 height="100px" viewBox="0 0 100 100" enable-background="new 0 0 100 100" xml:space="preserve">
<g id="Layer_1">
	<path fill="none" stroke="#000000" stroke-width="2" stroke-miterlimit="10" d="M49.999,8.021
		c23.563,0,42.667,19.103,42.667,42.667c0,23.563-19.104,42.666-42.667,42.666c-23.563,0-42.666-19.104-42.666-42.666
		C7.333,27.124,26.436,8.021,49.999,8.021z M34.934,34.139c-2.812,0-5.9-0.852-8.385-2.453c-0.191,1.695-0.302,3.472-0.302,5.314
		c0,11.082,3.692,20.067,8.248,20.067c4.555,0,8.247-8.985,8.247-20.067c0-1.664-0.092-3.271-0.248-4.818
		C40.168,33.46,37.44,34.139,34.934,34.139z M66.164,34.139c-2.812,0-5.899-0.852-8.384-2.453c-0.192,1.695-0.303,3.472-0.303,5.314
		c0,11.082,3.692,20.067,8.247,20.067c4.556,0,8.248-8.985,8.248-20.067c0-1.664-0.092-3.271-0.249-4.818
		C71.399,33.46,68.672,34.139,66.164,34.139z"/>
</g>
<g id="Layer_2">
</g>
</svg>
